PathFileType	4	(X/Y/Z)	../Python\walking\Walking16\task.trc
DataRate	CameraRate	NumFrames	NumMarkers	Units	OrigDataRate	OrigDataStartFrame	OrigNumFrames
200.000000	200.000000	6	30	mm	200.000000	226	452
Frame#	Time	C7			RBAK			CLAV			STRN			RASI			LASI			PE01			RTH1			RTH2			RTH3			RD5M			RTOE			LTH2			LTH3			LTB2			LTB3			LHEE			LTOE			LD5M			LTB1			RTB2			RHEE			RTB3			RTB1			LTH1			LPSI			PE03			PE02			RPSI			T10			
		X1	Y1	Z1	X2	Y2	Z2	X3	Y3	Z3	X4	Y4	Z4	X5	Y5	Z5	X6	Y6	Z6	X7	Y7	Z7	X8	Y8	Z8	X9	Y9	Z9	X10	Y10	Z10	X11	Y11	Z11	X12	Y12	Z12	X13	Y13	Z13	X14	Y14	Z14	X15	Y15	Z15	X16	Y16	Z16	X17	Y17	Z17	X18	Y18	Z18	X19	Y19	Z19	X20	Y20	Z20	X21	Y21	Z21	X22	Y22	Z22	X23	Y23	Z23	X24	Y24	Z24	X25	Y25	Z25	X26	Y26	Z26	X27	Y27	Z27	X28	Y28	Z28	X29	Y29	Z29	X30	Y30	Z30	

227	1.13	-12.65836715698243	1315.322143554688	143.6459350585938	-71.41285705566409	1209.480102539063	235.8863525390626	111.0789871215821	1219.083618164063	151.7480468750001	174.7264556884766	1037.659912109375	152.8352203369141	145.5891265869141	842.3222656250005	265.0169067382814	145.7881774902344	834.6093139648442	35.58131790161134	-47.22774124145509	913.555786132813	170.3731689453126	167.8312225341797	557.677429199219	296.6439208984376	218.1666564941407	498.8679504394534	277.8306579589845	219.2070617675782	558.3568115234377	293.9165649414064	466.7214660644534	49.43688583374026	250.5320587158204	491.5056152343752	78.0700378417969	204.4263305664064	-32.67087936401369	540.9744873046877	27.96511650085451	47.30558013916017	553.2403564453127	22.9372673034668	-195.5083465576173	227.6503906250001	60.5165939331055	-146.7726745605469	236.8309173583986	62.80686950683597	-300.1405029296876	72.44211578369143	125.4378967285157	-112.8458328247071	28.9835662841797	135.552963256836	-156.4553375244141	14.25552368164063	83.93766784667972	-157.5288391113282	295.3551025390626	46.95635986328126	291.0836486816407	250.2365570068361	270.217742919922	320.0641479492189	20.00251388549805	187.9035949707032	333.1251831054689	227.1869201660157	256.4108886718751	318.6548767089845	303.7207336425782	263.6763610839845	9.164389610290531	585.5897216796877	12.8345651626587	-56.06868743896487	879.6557006835942	126.2441024780274	-67.89080810546878	855.2336425781255	143.8113861083985	-64.9011154174805	854.313110351563	194.4364776611329	-54.87474441528323	874.5786743164067	211.2103576660157	-38.1989097595215	1014.788940429688	147.2203521728516	
228	1.135	-5.624595642089846	1314.809448242188	144.0196380615235	-64.18843078613284	1208.814331054688	236.2398986816407	118.2664184570313	1218.6318359375	151.9633331298829	182.164779663086	1037.316650390625	152.928207397461	153.0340576171876	842.2263183593755	265.2344360351564	153.1848144531251	833.641723632813	35.81017303466798	-39.93712615966798	913.2662963867192	170.1791229248047	176.7082519531251	558.3145751953127	296.8045654296876	226.9772186279298	499.4088439941409	277.9563598632814	228.1082611083986	559.097839355469	293.505584716797	468.6079406738284	45.34394836425783	249.164520263672	493.9645690917971	73.53450775146487	202.7356414794923	-26.26646041870119	540.4610595703127	28.28115081787111	53.77531814575198	552.4365234375002	23.14569282531739	-192.1436462402345	229.2920074462892	60.40869140625003	-143.2976684570313	237.7872009277345	62.74894332885745	-298.993621826172	75.63958740234378	125.0281600952149	-112.560661315918	29.01295089721681	135.3655548095704	-156.4992828369141	14.19655704498292	83.94541931152347	-153.2503204345704	296.3725585937501	46.84584808349611	296.874969482422	249.9223480224611	269.8227844238282	321.058074951172	19.97622871398926	187.7745971679688	338.4554138183595	226.1958770751954	255.7899017333986	325.2449951171876	302.9837951660157	263.1104125976564	15.72716426849366	584.891296386719	13.03603839874268	-48.62355041503909	879.1925659179692	126.1969223022462	-60.43493652343753	854.7511596679692	143.9215545654297	-57.42573165893558	854.0933227539067	194.5354614257814	-47.46566772460939	874.4244995117192	211.2216186523439	-30.8314838409424	1014.246276855469	147.2241973876954	
229	1.14	1.429684519767762	1314.396606445313	144.3978118896485	-56.92236709594729	1208.254516601563	236.6162414550782	125.4731903076172	1218.298461914063	152.1696166992188	189.6324768066407	1037.095458984375	153.0177307128907	160.5034484863282	842.272338867188	265.4785766601564	160.6232299804688	832.7533569335942	36.08538055419923	-32.64076232910158	913.0839843750005	169.940902709961	185.6518249511719	559.1052856445315	297.0504455566407	235.7757720947267	500.065612792969	278.1323547363282	237.0546417236329	559.9627685546877	293.0814514160157	470.3364562988284	41.31763076782228	248.0071716308595	496.2912902832034	69.024284362793	201.2182617187501	-19.68997383117676	539.9713134765627	28.62053680419923	60.38711547851565	551.6887817382815	23.38300323486329	-188.5836944580079	231.0695190429689	60.31863403320315	-139.6312713623047	238.8467407226564	62.67610549926761	-297.6358337402345	79.0851974487305	124.6488876342774	-112.281593322754	29.02113533020021	135.1539154052735	-156.5899047851563	14.13805294036866	83.98380279541018	-148.7634582519532	297.4974060058595	46.74715805053712	302.6195373535157	249.7481536865236	269.5396728515626	321.8977661132814	20.18028068542481	187.7990875244141	343.6945190429689	225.3303833007814	255.2433319091798	331.7534484863282	302.3478393554689	262.5852661132814	22.44573783874512	584.2305297851565	13.25501346588135	-41.13622283935548	878.8237915039067	126.1156997680665	-52.93475341796878	854.3593750000005	144.0029296875001	-49.92580413818362	853.984985351563	194.6051483154298	-40.02376937866212	874.3997192382817	211.2217559814454	-23.43137931823731	1013.808044433594	147.2247924804688	
230	1.145	8.50282192230225	1314.084594726563	144.7794952392579	-49.61570739746097	1207.803100585938	237.0152130126954	132.6970672607422	1218.084106445313	152.3649291992188	197.1257781982423	1036.995971679688	153.101547241211	167.9935760498047	842.4578247070317	265.7472229003907	168.0955810546876	831.949096679688	36.40526580810548	-25.34249305725099	913.0075683593755	169.6640014648438	194.6260528564454	560.0344848632815	297.3792419433595	244.544158935547	500.842956542969	278.353240966797	246.0096893310548	560.945983886719	292.6581420898439	471.9350891113284	37.43007278442384	247.0902099609376	498.5045471191409	64.611442565918	199.9051055908204	-12.92373371124268	539.5015869140627	28.97717094421388	67.15954589843753	551.0002441406252	23.63311195373536	-184.8035736083985	232.9877166748048	60.24467849731448	-135.7490539550782	240.0106811523439	62.57831192016604	-296.0261535644532	82.79239654541018	124.3087463378907	-112.0242996215821	28.99986839294435	134.9196777343751	-156.7307739257813	14.08842754364014	84.05883789062503	-144.0409393310547	298.735809326172	46.65869140625001	308.3304138183595	249.7115783691407	269.3763122558595	322.6362304687501	20.59153175354005	187.9627380371094	348.8509521484376	224.5948486328126	254.7684478759767	338.1781005859376	301.8145446777345	262.0989379882814	29.33163833618165	583.6079101562502	13.48613834381104	-33.61230468750001	878.549438476563	126.0051193237305	-45.39599609375001	854.0588989257817	144.0591735839844	-42.40668106079103	853.9866333007817	194.6492767333986	-32.55272674560548	874.5029907226567	211.2155609130861	-16.00295639038087	1013.475952148438	147.2249450683594	
231	1.15	15.59310245513917	1313.874389648438	145.1636810302735	-42.26960372924806	1207.461791992188	237.4366149902345	139.9357147216797	1217.989013671875	152.5472412109376	204.6406097412111	1037.016845703125	153.1772918701172	175.5002899169922	842.7786254882817	266.0379028320314	175.5933685302735	831.2336425781255	36.76760101318361	-18.04606819152833	913.035034179688	169.3545532226563	203.5941467285157	561.0838012695315	297.7871398925782	253.266815185547	501.7426757812502	278.614227294922	254.9373779296876	562.0396728515627	292.2512207031251	473.4174804687502	33.74575042724611	246.4319458007814	500.6094360351565	60.36115264892581	198.8150787353517	-5.948644161224367	539.0464477539065	29.34395980834962	74.11333465576175	550.372985839844	23.87731552124024	-180.7760620117188	235.0485382080079	60.18464279174808	-131.6245269775391	241.2781219482423	62.44498443603518	-294.1199951171876	86.7719650268555	124.0155944824219	-111.8059005737305	28.94127082824708	134.6665954589844	-156.9212188720704	14.05934619903565	84.17624664306643	-139.0538024902344	300.0912170410157	46.57797241210939	314.0115051269532	249.8021545410157	269.3355102539064	323.3116760253907	21.17546463012696	188.2450103759766	353.9249267578126	223.9851531982423	254.3580627441407	344.5122070312501	301.3795776367189	261.6472778320314	36.39686965942384	583.0229492187502	13.7233362197876	-26.05800628662111	878.369018554688	125.8704528808594	-37.82503128051759	853.8500366210942	144.0943450927735	-34.87409973144533	854.096069335938	194.6720275878907	-25.05667114257814	874.7321777343755	211.2079010009767	-8.550845146179203	1013.250854492188	147.2277832031251	
232	1.155	22.69875526428223	1313.765747070313	145.5493316650391	-34.885311126709	1207.231689453125	237.8802185058595	147.1867370605469	1218.011962890625	152.7145996093751	212.1726837158204	1037.155883789063	153.2425842285157	183.0190582275391	843.2294921875005	266.3480224609376	183.1075744628907	830.6110229492192	37.16964340209962	-10.7550916671753	913.1638793945317	169.0191955566407	212.5193786621095	562.2322998046877	298.268768310547	261.9297485351564	502.7616882324221	278.9105834960939	263.8029174804689	563.2327880859377	291.8767395019532	474.7868347167971	30.31948661804201	246.0368499755861	502.6020202636721	56.33011245727542	197.9534912109376	1.254939436912537	538.5989379882815	29.71261787414552	81.27032470703128	549.8081665039065	24.09504127502443	-176.4720001220704	237.2503967285157	60.13590240478518	-127.2295455932618	242.6458129882814	62.26546096801761	-291.8700256347657	91.03105163574222	123.7757415771485	-111.6436157226563	28.83872604370119	134.4005737304688	-157.1549224853516	14.06604862213135	84.3410339355469	-133.7722625732422	301.5639953613282	46.50160980224611	319.6557922363282	250.0017242431642	269.4139099121095	323.9489135742189	21.89037132263184	188.6205139160157	358.9079895019532	223.4895477294923	254.0013732910157	350.743621826172	301.032928466797	261.2249450683595	43.6533889770508	582.4739990234377	13.95983982086182	-18.48007583618165	878.2814941406255	125.7174224853516	-30.22878265380861	853.732788085938	144.1128540039063	-27.33411598205568	854.310424804688	194.6779785156251	-17.54018020629884	875.0839233398442	211.2036895751954	-1.079881191253663	1013.133117675782	147.2366790771485	
